<svg width="32" height="32" viewBox="0 0 32 32" fill="none" xmlns="http://www.w3.org/2000/svg">
<path fill-rule="evenodd" clip-rule="evenodd" d="M6 0C2.68629 0 0 2.68629 0 6V26C0 29.3137 2.68629 32 6 32H26C29.3137 32 32 29.3137 32 26V6C32 2.68629 29.3137 0 26 0H6ZM10.4615 8.00001C12.1792 7.99751 13.8613 8.48027 15.3077 9.3908V24C13.9905 22.9304 12.3031 22.289 10.4615 22.289C9.59692 22.2879 8.73846 22.4318 7.92308 22.7144C7.81866 22.7507 7.70692 22.7619 7.59722 22.7469C7.48752 22.732 7.38307 22.6914 7.29264 22.6285C7.20221 22.5657 7.12844 22.4825 7.07752 22.3858C7.0266 22.2891 7.00002 22.1819 7 22.073V9.14494C7.00002 9.00425 7.04441 8.86702 7.12707 8.75215C7.20972 8.63728 7.32658 8.55042 7.46154 8.50352C8.42514 8.16926 9.43968 7.99898 10.4615 8.00001ZM21.5385 22.289C19.7694 22.2862 18.0551 22.8915 16.6923 24V9.3908C18.1387 8.48027 19.8208 7.99751 21.5385 8.00001C22.5603 7.99898 23.5749 8.16926 24.5385 8.50352C24.6734 8.55042 24.7903 8.63728 24.8729 8.75215C24.9556 8.86702 25 9.00425 25 9.14494V22.073C25.0001 22.182 24.9737 22.2893 24.9228 22.3861C24.8719 22.4829 24.7982 22.5662 24.7077 22.6292C24.6173 22.6921 24.5128 22.7328 24.403 22.7478C24.2932 22.7628 24.1814 22.7517 24.0769 22.7154C23.2831 22.4396 22.4302 22.289 21.5385 22.289Z" fill="#10B981"/>
</svg>
