<svg width="40" height="40" viewBox="0 0 40 40" fill="none" xmlns="http://www.w3.org/2000/svg">
<path fill-rule="evenodd" clip-rule="evenodd" d="M20 6.25C20.3315 6.25 20.6495 6.3817 20.8839 6.61612C21.1183 6.85054 21.25 7.16848 21.25 7.5V18.75H32.5C32.8315 18.75 33.1495 18.8817 33.3839 19.1161C33.6183 19.3505 33.75 19.6685 33.75 20C33.75 20.3315 33.6183 20.6495 33.3839 20.8839C33.1495 21.1183 32.8315 21.25 32.5 21.25H21.25V32.5C21.25 32.8315 21.1183 33.1495 20.8839 33.3839C20.6495 33.6183 20.3315 33.75 20 33.75C19.6685 33.75 19.3505 33.6183 19.1161 33.3839C18.8817 33.1495 18.75 32.8315 18.75 32.5V21.25H7.5C7.16848 21.25 6.85054 21.1183 6.61612 20.8839C6.3817 20.6495 6.25 20.3315 6.25 20C6.25 19.6685 6.3817 19.3505 6.61612 19.1161C6.85054 18.8817 7.16848 18.75 7.5 18.75H18.75V7.5C18.75 7.16848 18.8817 6.85054 19.1161 6.61612C19.3505 6.3817 19.6685 6.25 20 6.25Z" fill="#111827"/>
</svg>
