<svg width="17" height="17" viewBox="0 0 17 17" fill="none" xmlns="http://www.w3.org/2000/svg">
<path fill-rule="evenodd" clip-rule="evenodd" d="M11.5 3.77479V3.92612C12.366 4.00531 13.2285 4.11918 14.0853 4.26746C14.15 4.27866 14.2119 4.3025 14.2674 4.33761C14.3229 4.37272 14.3709 4.41842 14.4087 4.47209C14.4465 4.52577 14.4734 4.58636 14.4878 4.65042C14.5022 4.71449 14.5039 4.78076 14.4927 4.84546C14.4815 4.91015 14.4576 4.97201 14.4225 5.02749C14.3874 5.08298 14.3417 5.13101 14.288 5.16883C14.2344 5.20665 14.1738 5.23354 14.1097 5.24794C14.0456 5.26235 13.9794 5.26399 13.9147 5.25279L13.7753 5.22945L13.1053 13.9428C13.0667 14.4452 12.8399 14.9145 12.4702 15.2568C12.1005 15.5992 11.6152 15.7894 11.1113 15.7895H5.88934C5.38547 15.7894 4.90017 15.5992 4.53049 15.2568C4.1608 14.9145 3.93397 14.4452 3.89534 13.9428L3.22467 5.22945L3.08534 5.25279C3.02064 5.26399 2.95437 5.26235 2.89031 5.24794C2.82625 5.23354 2.76565 5.20665 2.71198 5.16883C2.60358 5.09244 2.52997 4.97612 2.50734 4.84546C2.48471 4.71479 2.51491 4.58049 2.5913 4.47209C2.66769 4.3637 2.78401 4.29009 2.91467 4.26746C3.77152 4.11901 4.63399 4.00513 5.5 3.92612V3.77479C5.5 2.73212 6.30867 1.84146 7.37734 1.80746C8.12581 1.7835 8.87486 1.7835 9.62334 1.80746C10.692 1.84146 11.5 2.73212 11.5 3.77479ZM7.40934 2.80679C8.13649 2.78353 8.86419 2.78353 9.59134 2.80679C10.0933 2.82279 10.5 3.24546 10.5 3.77479V3.85012C9.1679 3.76922 7.83211 3.76922 6.5 3.85012V3.77479C6.5 3.24546 6.906 2.82279 7.40934 2.80679ZM7.17267 6.77012C7.17013 6.70446 7.15469 6.63994 7.12721 6.58025C7.09974 6.52056 7.06078 6.46687 7.01255 6.42223C6.96433 6.3776 6.90779 6.3429 6.84615 6.32012C6.78452 6.29734 6.719 6.28692 6.65334 6.28946C6.58768 6.29199 6.52316 6.30744 6.46347 6.33491C6.40378 6.36239 6.35008 6.40135 6.30545 6.44957C6.26081 6.4978 6.22611 6.55434 6.20333 6.61597C6.18055 6.67761 6.17013 6.74313 6.17267 6.80879L6.404 12.8088C6.40913 12.9413 6.46669 13.0664 6.56402 13.1564C6.61222 13.201 6.66873 13.2357 6.73032 13.2585C6.79191 13.2812 6.85739 13.2917 6.923 13.2891C6.98862 13.2866 7.0531 13.2711 7.11275 13.2437C7.1724 13.2162 7.22606 13.1773 7.27066 13.1291C7.31526 13.0809 7.34994 13.0244 7.3727 12.9628C7.39547 12.9012 7.40588 12.8357 7.40334 12.7701L7.17267 6.77012ZM10.826 6.80879C10.8309 6.74187 10.8223 6.67464 10.8006 6.61113C10.779 6.54761 10.7448 6.4891 10.7001 6.43908C10.6553 6.38906 10.601 6.34856 10.5403 6.31998C10.4796 6.2914 10.4137 6.27534 10.3467 6.27274C10.2796 6.27014 10.2127 6.28107 10.15 6.30487C10.0873 6.32867 10.03 6.36485 9.9815 6.41126C9.93304 6.45767 9.89441 6.51336 9.86793 6.57502C9.84144 6.63667 9.82764 6.70302 9.82734 6.77012L9.596 12.7701C9.59088 12.9027 9.63864 13.0319 9.72878 13.1293C9.81892 13.2267 9.94406 13.2843 10.0767 13.2895C10.2093 13.2946 10.3385 13.2468 10.4359 13.1567C10.5333 13.0665 10.5909 12.9414 10.596 12.8088L10.826 6.80879Z" fill="#BE123C"/>
</svg>
