<svg width="12" height="12" viewBox="0 0 12 12" fill="none" xmlns="http://www.w3.org/2000/svg">
<path fill-rule="evenodd" clip-rule="evenodd" d="M0.3125 5.82608C0.3125 2.68483 2.85875 0.13858 6 0.13858C9.14125 0.13858 11.6875 2.68483 11.6875 5.82608C11.6875 8.96733 9.14125 11.5136 6 11.5136C2.85875 11.5136 0.3125 8.96733 0.3125 5.82608ZM8.10583 4.76791C8.14083 4.72128 8.16616 4.66811 8.18032 4.61155C8.19448 4.55499 8.19719 4.49616 8.18829 4.43854C8.17939 4.38091 8.15906 4.32564 8.1285 4.27599C8.09793 4.22633 8.05775 4.18328 8.01032 4.14938C7.96288 4.11547 7.90914 4.09139 7.85226 4.07855C7.79539 4.06571 7.73652 4.06436 7.67911 4.0746C7.62171 4.08484 7.56693 4.10644 7.518 4.13815C7.46906 4.16986 7.42696 4.21103 7.39417 4.25925L5.5065 6.90175L4.55917 5.95441C4.47623 5.87713 4.36654 5.83506 4.2532 5.83706C4.13985 5.83906 4.03171 5.88498 3.95155 5.96513C3.8714 6.04529 3.82548 6.15343 3.82348 6.26678C3.82148 6.38012 3.86355 6.48981 3.94083 6.57275L5.25333 7.88525C5.29824 7.93012 5.35238 7.96469 5.41199 7.98654C5.4716 8.00839 5.53525 8.01701 5.59853 8.01179C5.6618 8.00657 5.72318 7.98765 5.77841 7.95633C5.83363 7.92501 5.88138 7.88204 5.91833 7.83041L8.10583 4.76791Z" fill="#10B981"/>
</svg>
