<svg width="17" height="17" viewBox="0 0 17 17" fill="none" xmlns="http://www.w3.org/2000/svg">
<path d="M15.9143 1.37513C15.5393 1.00013 15.0306 0.789459 14.5002 0.789459C13.9699 0.789459 13.4612 1.00013 13.0861 1.37513L12.2046 2.25666L15.0328 5.08485L15.9143 4.20333C16.2893 3.82826 16.5 3.3196 16.5 2.78923C16.5 2.25885 16.2893 1.75019 15.9143 1.37513ZM14.2244 5.89324L11.3962 3.06504L2.13906 12.3222C1.66885 12.7922 1.32319 13.3719 1.13334 14.0091L0.523813 16.0548C0.494385 16.1535 0.492191 16.2583 0.517461 16.3582C0.542731 16.4581 0.594527 16.5492 0.667368 16.6221C0.740209 16.6949 0.831385 16.7467 0.93125 16.772C1.03111 16.7973 1.13595 16.7951 1.23467 16.7656L3.28039 16.1561C3.91752 15.9663 4.49728 15.6206 4.96725 15.1504L14.2244 5.89324Z" fill="#0284C7"/>
</svg>
