<svg width="27" height="27" viewBox="0 0 27 27" fill="none" xmlns="http://www.w3.org/2000/svg">
<path d="M19.4827 3.98275L21.732 1.73209C22.2009 1.26318 22.8369 0.999756 23.5 0.999756C24.1631 0.999756 24.7991 1.26318 25.268 1.73209C25.7369 2.20099 26.0003 2.83696 26.0003 3.50009C26.0003 4.16321 25.7369 4.79918 25.268 5.26809L11.1093 19.4268C10.4044 20.1312 9.53516 20.6491 8.58 20.9334L5 22.0001L6.06667 18.4201C6.35104 17.4649 6.86885 16.5957 7.57333 15.8908L19.4827 3.98275ZM19.4827 3.98275L23 7.50009M21 16.6668V23.0001C21 23.7957 20.6839 24.5588 20.1213 25.1214C19.5587 25.684 18.7956 26.0001 18 26.0001H4C3.20435 26.0001 2.44129 25.684 1.87868 25.1214C1.31607 24.5588 1 23.7957 1 23.0001V9.00009C1 8.20444 1.31607 7.44137 1.87868 6.87877C2.44129 6.31616 3.20435 6.00009 4 6.00009H10.3333" stroke="black" stroke-width="2" stroke-linecap="round" stroke-linejoin="round"/>
</svg>
