<svg width="36" height="30" viewBox="0 0 36 30" fill="none" xmlns="http://www.w3.org/2000/svg">
<path d="M31.75 7.5L30.7083 25.22C30.6522 26.1751 30.2332 27.0726 29.537 27.7288C28.8408 28.3851 27.9201 28.7504 26.9633 28.75H9.03667C8.07994 28.7504 7.15924 28.3851 6.46304 27.7288C5.76685 27.0726 5.34779 26.1751 5.29167 25.22L4.25 7.5M14.6667 13.75H21.3333M3.625 7.5H32.375C33.41 7.5 34.25 6.66 34.25 5.625V3.125C34.25 2.09 33.41 1.25 32.375 1.25H3.625C2.59 1.25 1.75 2.09 1.75 3.125V5.625C1.75 6.66 2.59 7.5 3.625 7.5Z" stroke="#111827" stroke-width="2" stroke-linecap="round" stroke-linejoin="round"/>
</svg>
