<svg width="12" height="13" viewBox="0 0 12 13" fill="none" xmlns="http://www.w3.org/2000/svg">
<path fill-rule="evenodd" clip-rule="evenodd" d="M0.3125 6.65216C0.3125 3.51091 2.85875 0.964661 6 0.964661C9.14125 0.964661 11.6875 3.51091 11.6875 6.65216C11.6875 9.79341 9.14125 12.3397 6 12.3397C2.85875 12.3397 0.3125 9.79341 0.3125 6.65216ZM6 4.46466C6.11603 4.46466 6.22731 4.51075 6.30936 4.5928C6.39141 4.67485 6.4375 4.78613 6.4375 4.90216V7.08966C6.4375 7.20569 6.39141 7.31697 6.30936 7.39902C6.22731 7.48107 6.11603 7.52716 6 7.52716C5.88397 7.52716 5.77269 7.48107 5.69064 7.39902C5.60859 7.31697 5.5625 7.20569 5.5625 7.08966V4.90216C5.5625 4.78613 5.60859 4.67485 5.69064 4.5928C5.77269 4.51075 5.88397 4.46466 6 4.46466ZM6 9.27716C6.11603 9.27716 6.22731 9.23107 6.30936 9.14902C6.39141 9.06697 6.4375 8.95569 6.4375 8.83966C6.4375 8.72363 6.39141 8.61235 6.30936 8.5303C6.22731 8.44825 6.11603 8.40216 6 8.40216C5.88397 8.40216 5.77269 8.44825 5.69064 8.5303C5.60859 8.61235 5.5625 8.72363 5.5625 8.83966C5.5625 8.95569 5.60859 9.06697 5.69064 9.14902C5.77269 9.23107 5.88397 9.27716 6 9.27716Z" fill="#0284C7"/>
</svg>
