<svg width="20" height="21" viewBox="0 0 20 21" fill="none" xmlns="http://www.w3.org/2000/svg" >
<path fill-rule="evenodd" clip-rule="evenodd" d="M8.5 2.25001C7.61358 2.25001 6.73583 2.4246 5.91689 2.76382C5.09794 3.10304 4.35382 3.60024 3.72703 4.22704C3.10023 4.85384 2.60303 5.59795 2.26381 6.4169C1.92459 7.23585 1.75 8.11359 1.75 9.00001C1.75 9.88643 1.92459 10.7642 2.26381 11.5831C2.60303 12.4021 3.10023 13.1462 3.72703 13.773C4.35382 14.3998 5.09794 14.897 5.91689 15.2362C6.73583 15.5754 7.61358 15.75 8.5 15.75C10.2902 15.75 12.0071 15.0389 13.273 13.773C14.5388 12.5071 15.25 10.7902 15.25 9.00001C15.25 7.2098 14.5388 5.49291 13.273 4.22704C12.0071 2.96117 10.2902 2.25001 8.5 2.25001ZM0.25 9.00001C0.250175 7.67511 0.56944 6.36973 1.18079 5.19431C1.79214 4.01889 2.67759 3.00799 3.76224 2.24713C4.84689 1.48627 6.09883 0.997836 7.41216 0.823135C8.7255 0.648435 10.0616 0.792611 11.3074 1.24347C12.5533 1.69432 13.6722 2.4386 14.5695 3.41333C15.4669 4.38807 16.1163 5.56459 16.4628 6.84337C16.8094 8.12216 16.8428 9.46559 16.5603 10.76C16.2778 12.0545 15.6878 13.2618 14.84 14.28L19.53 18.97C19.6037 19.0387 19.6628 19.1215 19.7038 19.2135C19.7448 19.3055 19.7668 19.4048 19.7686 19.5055C19.7704 19.6062 19.7518 19.7062 19.7141 19.7996C19.6764 19.893 19.6203 19.9778 19.549 20.049C19.4778 20.1203 19.393 20.1764 19.2996 20.2141C19.2062 20.2519 19.1062 20.2704 19.0055 20.2686C18.9048 20.2668 18.8055 20.2448 18.7135 20.2038C18.6215 20.1628 18.5387 20.1037 18.47 20.03L13.78 15.34C12.5752 16.3435 11.1094 16.9829 9.55432 17.1833C7.99922 17.3837 6.41922 17.1367 4.99941 16.4714C3.5796 15.8061 2.37878 14.75 1.53763 13.4267C0.69648 12.1035 0.249828 10.568 0.25 9.00001Z" fill="#111827"/>
</svg>
