<svg width="10" height="13" viewBox="0 0 10 13" fill="none" xmlns="http://www.w3.org/2000/svg">
<path fill-rule="evenodd" clip-rule="evenodd" d="M2.375 3.32608C2.375 2.62989 2.65156 1.96221 3.14384 1.46992C3.63613 0.977642 4.3038 0.70108 5 0.70108C5.69619 0.70108 6.36387 0.977642 6.85615 1.46992C7.34844 1.96221 7.625 2.62989 7.625 3.32608C7.625 4.02227 7.34844 4.68995 6.85615 5.18224C6.36387 5.67452 5.69619 5.95108 5 5.95108C4.3038 5.95108 3.63613 5.67452 3.14384 5.18224C2.65156 4.68995 2.375 4.02227 2.375 3.32608ZM0.188081 11.554C0.207751 10.2908 0.723372 9.08595 1.62364 8.19958C2.52391 7.31322 3.73662 6.81642 5 6.81642C6.26337 6.81642 7.47608 7.31322 8.37635 8.19958C9.27662 9.08595 9.79224 10.2908 9.81191 11.554C9.81343 11.639 9.79013 11.7227 9.74485 11.7947C9.69958 11.8667 9.6343 11.9239 9.557 11.9594C8.12735 12.6149 6.57276 12.9532 5 12.9511C3.37483 12.9511 1.83075 12.5964 0.442998 11.9594C0.365698 11.9239 0.300416 11.8667 0.255142 11.7947C0.209868 11.7227 0.186563 11.639 0.188081 11.554Z" fill="#374151"/>
</svg>
