<svg width="14" height="18" viewBox="0 0 14 18" fill="none" xmlns="http://www.w3.org/2000/svg">
<path fill-rule="evenodd" clip-rule="evenodd" d="M3.25 4C3.25 3.00544 3.64509 2.05161 4.34835 1.34835C5.05161 0.645088 6.00544 0.25 7 0.25C7.99456 0.25 8.94839 0.645088 9.65165 1.34835C10.3549 2.05161 10.75 3.00544 10.75 4C10.75 4.99456 10.3549 5.94839 9.65165 6.65165C8.94839 7.35491 7.99456 7.75 7 7.75C6.00544 7.75 5.05161 7.35491 4.34835 6.65165C3.64509 5.94839 3.25 4.99456 3.25 4ZM0.125832 15.7542C0.153932 13.9496 0.890533 12.2284 2.17663 10.9621C3.46273 9.69592 5.19517 8.98621 7 8.98621C8.80482 8.98621 10.5373 9.69592 11.8234 10.9621C13.1095 12.2284 13.8461 13.9496 13.8742 15.7542C13.8763 15.8757 13.843 15.9951 13.7784 16.098C13.7137 16.2009 13.6204 16.2826 13.51 16.3333C11.4676 17.2698 9.2468 17.753 7 17.75C4.67833 17.75 2.4725 17.2433 0.489999 16.3333C0.37957 16.2826 0.286311 16.2009 0.221634 16.098C0.156956 15.9951 0.123664 15.8757 0.125832 15.7542Z" fill="#374151"/>
</svg>
